<svg id="SvgjsSvg1016" xmlns="http://www.w3.org/2000/svg" version="1.1" xmlns:xlink="http://www.w3.org/1999/xlink" xmlns:svgjs="http://svgjs.com/svgjs" width="474" height="235" viewBox="0 0 474 235"><title>Rectangle 39</title><desc>Created with Avocode.</desc><defs id="SvgjsDefs1017"><filter id="SvgjsFilter1019" width="200%" height="200%" x="-50%" y="-50%"><feMorphology id="SvgjsFeMorphology1020" operator="dilate" radius="0" result="SvgjsFeMorphology1020Out" in="SourceGraphic"></feMorphology><feOffset id="SvgjsFeOffset1021" dx="1.3" dy="1.5" result="SvgjsFeOffset1021Out" in="SvgjsFeMorphology1020Out"></feOffset><feGaussianBlur id="SvgjsFeGaussianBlur1022" stdDeviation="3.5 " result="SvgjsFeGaussianBlur1022Out" in="SvgjsFeOffset1021Out"></feGaussianBlur><feComposite id="SvgjsFeComposite1023" in="SvgjsFeGaussianBlur1022Out" in2="SourceAlpha" operator="out" result="SvgjsFeComposite1023Out"></feComposite></filter><linearGradient id="SvgjsLinearGradient1027" gradientUnits="userSpaceOnUse" x1="1772" y1="2288.21" x2="1772" y2="2068"><stop id="SvgjsStop1028" stop-opacity="1" stop-color="#e7e7e7" offset="0"></stop><stop id="SvgjsStop1029" stop-opacity="1" stop-color="#ffffff" offset="1"></stop></linearGradient></defs><path id="SvgjsPath1018" d="M1542 2268V2068H2002V2268ZM1750.79 2267L1772 2245.79L1793.21 2267L1772 2288.21Z " fill="#000000" fill-opacity="0.4" filter="url(#SvgjsFilter1019)" transform="matrix(1,0,0,1,-1536.3,-2062.5)"></path><path id="SvgjsPath1024" d="M1542 2268V2068H2002V2268ZM1750.79 2267L1772 2245.79L1793.21 2267L1772 2288.21Z " fill="#ffffff" fill-opacity="1" transform="matrix(1,0,0,1,-1536.3,-2062.5)"></path><path id="SvgjsPath1025" d="M1542 2268V2068H2002V2268ZM1750.79 2267L1772 2245.79L1793.21 2267L1772 2288.21Z " fill="#ffffff" fill-opacity="1" transform="matrix(1,0,0,1,-1536.3,-2062.5)"></path><path id="SvgjsPath1026" d="M1542 2268V2068H2002V2268ZM1750.79 2267L1772 2245.79L1793.21 2267L1772 2288.21Z " fill="url(#SvgjsLinearGradient1027)" transform="matrix(1,0,0,1,-1536.3,-2062.5)"></path></svg>