<svg id="SvgjsSvg1012" xmlns="http://www.w3.org/2000/svg" version="1.1" xmlns:xlink="http://www.w3.org/1999/xlink" xmlns:svgjs="http://svgjs.com/svgjs" width="51" height="64" viewBox="0 0 51 64"><title>marker</title><desc>Created with Avocode.</desc><defs id="SvgjsDefs1013"></defs><path id="SvgjsPath1014" d="M1788.78 2312.16C1798.42 2321.73 1797.94 2336.69 1790.16 2346.81C1786.03 2352.17 1774.68 2367.99 1771.3200000000002 2367.99C1767.92 2367.99 1757.0000000000002 2352.24 1752.91 2346.81C1745.52 2337 1744.22 2321.73 1753.8700000000001 2312.16C1763.5100000000002 2302.6 1779.14 2302.6 1788.7800000000002 2312.16Z " fill="#ee9d38" fill-opacity="1" transform="matrix(1,0,0,1,-1746,-2304)"></path><path id="SvgjsPath1015" d="M1771.5 2318.13C1777.78 2318.13 1782.87 2323.2200000000003 1782.87 2329.51C1782.87 2335.7900000000004 1777.78 2340.88 1771.5 2340.88C1765.22 2340.88 1760.13 2335.79 1760.13 2329.51C1760.13 2323.2200000000003 1765.22 2318.13 1771.5 2318.13Z " fill="#ffffff" fill-opacity="1" transform="matrix(1,0,0,1,-1746,-2304)"></path></svg>