<svg id="SvgjsSvg1009" xmlns="http://www.w3.org/2000/svg" version="1.1" xmlns:xlink="http://www.w3.org/1999/xlink" xmlns:svgjs="http://svgjs.com/svgjs" width="31" height="21" viewBox="0 0 31 21"><title>Next Arrow</title><desc>Created with Avocode.</desc><defs id="SvgjsDefs1010"></defs><path id="SvgjsPath1011" d="M2355.8 1934.98L2346.46 1944.79C2346.33 1944.93 2346.18 1945 2346 1945C2345.83 1945 2345.68 1944.93 2345.54 1944.79L2344.54 1943.74C2344.41 1943.6 2344.34 1943.44 2344.34 1943.25C2344.34 1943.07 2344.4100000000003 1942.91 2344.54 1942.77L2351 1936H2325V1933H2351L2344.54 1926.23C2344.41 1926.09 2344.34 1925.93 2344.34 1925.75C2344.34 1925.56 2344.4100000000003 1925.4 2344.54 1925.26L2345.54 1924.21C2345.68 1924.07 2345.83 1924 2346 1924C2346.18 1924 2346.33 1924.07 2346.46 1924.21L2355.8 1934.02C2355.9300000000003 1934.16 2356 1934.32 2356 1934.5C2356 1934.68 2355.93 1934.84 2355.8 1934.98Z " fill="#3e3e3e" fill-opacity="1" transform="matrix(1,0,0,1,-2325,-1924)"></path></svg>