<svg id="SvgjsSvg1000" xmlns="http://www.w3.org/2000/svg" version="1.1" xmlns:xlink="http://www.w3.org/1999/xlink" xmlns:svgjs="http://svgjs.com/svgjs" width="51" height="64" viewBox="0 0 51 64"><title>marker</title><desc>Created with Avocode.</desc><defs id="SvgjsDefs1001"></defs><path id="SvgjsPath1007" d="M1788.78 1979.16C1798.42 1988.73 1797.94 2003.69 1790.16 2013.8100000000002C1786.03 2019.17 1774.68 2034.9900000000002 1771.3200000000002 2034.9900000000002C1767.92 2034.9900000000002 1757.0000000000002 2019.2400000000002 1752.91 2013.8100000000002C1745.52 2004.0000000000002 1744.22 1988.7300000000002 1753.8700000000001 1979.16C1763.5100000000002 1969.6000000000001 1779.14 1969.6000000000001 1788.7800000000002 1979.16Z " fill="#ee9d38" fill-opacity="1" transform="matrix(1,0,0,1,-1746,-1971)"></path><path id="SvgjsPath1008" d="M1771.5 1985.13C1777.78 1985.13 1782.87 1990.22 1782.87 1996.5100000000002C1782.87 2002.7900000000002 1777.78 2007.88 1771.5 2007.88C1765.22 2007.88 1760.13 2002.7900000000002 1760.13 1996.5100000000002C1760.13 1990.2200000000003 1765.22 1985.13 1771.5 1985.13Z " fill="#ffffff" fill-opacity="1" transform="matrix(1,0,0,1,-1746,-1971)"></path></svg>