<svg id="SvgjsSvg1008" xmlns="http://www.w3.org/2000/svg" version="1.1" xmlns:xlink="http://www.w3.org/1999/xlink" xmlns:svgjs="http://svgjs.com/svgjs" width="31" height="21" viewBox="0 0 31 21"><title>Next Arrow</title><desc>Created with Avocode.</desc><defs id="SvgjsDefs1009"></defs><path id="SvgjsPath1010" d="M2649.8 1748.98L2640.46 1758.79C2640.33 1758.93 2640.18 1759 2640 1759C2639.83 1759 2639.68 1758.93 2639.54 1758.79L2638.54 1757.74C2638.41 1757.6 2638.34 1757.44 2638.34 1757.25C2638.34 1757.07 2638.4100000000003 1756.91 2638.54 1756.77L2645 1750H2619V1747H2645L2638.54 1740.23C2638.41 1740.09 2638.34 1739.93 2638.34 1739.75C2638.34 1739.56 2638.4100000000003 1739.4 2638.54 1739.26L2639.54 1738.21C2639.68 1738.07 2639.83 1738 2640 1738C2640.18 1738 2640.33 1738.07 2640.46 1738.21L2649.8 1748.02C2649.9300000000003 1748.16 2650 1748.32 2650 1748.5C2650 1748.68 2649.93 1748.84 2649.8 1748.98Z " fill="#ffffff" fill-opacity="1" transform="matrix(1,0,0,1,-2619,-1738)"></path></svg>